<svg xmlns="http://www.w3.org/2000/svg" width="443" height="625" viewBox="0 0 443 625" fill="none">
  <defs>
    <radialGradient id="bg" cx="0" cy="0" r="1" gradientUnits="userSpaceOnUse" gradientTransform="translate(221.5 312.5) rotate(90) scale(360 280)">
      <stop offset="0" stop-color="#3C1D2E"/>
      <stop offset="0.58" stop-color="#2A0714"/>
      <stop offset="1" stop-color="#120007"/>
    </radialGradient>
    <linearGradient id="gold" x1="66" y1="312" x2="377" y2="312" gradientUnits="userSpaceOnUse">
      <stop offset="0" stop-color="#D6B15A"/>
      <stop offset="0.22" stop-color="#F0D37B"/>
      <stop offset="0.45" stop-color="#B9852D"/>
      <stop offset="0.7" stop-color="#F0D67E"/>
      <stop offset="1" stop-color="#A56A1D"/>
    </linearGradient>
    <linearGradient id="goldSoft" x1="0" y1="0" x2="1" y2="1">
      <stop offset="0" stop-color="#E4C26B"/>
      <stop offset="0.5" stop-color="#C9963E"/>
      <stop offset="1" stop-color="#8E5B16"/>
    </linearGradient>
    <filter id="softGlow" x="-20%" y="-20%" width="140%" height="140%">
      <feGaussianBlur in="SourceGraphic" stdDeviation="0.6" result="blur"/>
      <feMerge>
        <feMergeNode in="blur"/>
        <feMergeNode in="SourceGraphic"/>
      </feMerge>
    </filter>
  </defs>

  <rect width="443" height="625" rx="4" fill="url(#bg)"/>

  <!-- Outer border -->
  <rect x="16" y="18" width="411" height="589" rx="2" stroke="url(#goldSoft)" stroke-width="0.95" opacity="0.95"/>
  <rect x="20" y="22" width="403" height="581" rx="1.5" stroke="#6F4B1B" stroke-width="0.35" opacity="0.95"/>

  <!-- Corner ornaments -->
  <g stroke="url(#goldSoft)" stroke-linecap="round" opacity="0.95">
    <path d="M16 30 Q16 20 26 20" stroke-width="0.95"/>
    <path d="M18 32 Q18 22 28 22" stroke-width="0.45" opacity="0.8"/>
    <path d="M427 30 Q427 20 417 20" stroke-width="0.95"/>
    <path d="M425 32 Q425 22 415 22" stroke-width="0.45" opacity="0.8"/>
    <path d="M16 595 Q16 605 26 605" stroke-width="0.95"/>
    <path d="M18 593 Q18 603 28 603" stroke-width="0.45" opacity="0.8"/>
    <path d="M427 595 Q427 605 417 605" stroke-width="0.95"/>
    <path d="M425 593 Q425 603 415 603" stroke-width="0.45" opacity="0.8"/>
  </g>
  <g fill="url(#goldSoft)" opacity="0.95">
    <path d="M14 21 L19 21 L14 26 Z"/>
    <path d="M429 21 L424 21 L429 26 Z"/>
    <path d="M14 604 L19 604 L14 599 Z"/>
    <path d="M429 604 L424 604 L429 599 Z"/>
  </g>

  <!-- Top tiny line -->
  <line x1="22" y1="20" x2="413" y2="20" stroke="#5C3811" stroke-width="0.4" opacity="0.5"/>

  <!-- Decorative horizontal rules -->
  <g opacity="0.95">
    <line x1="92" y1="213" x2="197" y2="213" stroke="#7C5520" stroke-width="0.5"/>
    <line x1="246" y1="213" x2="351" y2="213" stroke="#7C5520" stroke-width="0.5"/>
    <line x1="94" y1="213.6" x2="199" y2="213.6" stroke="#2A1507" stroke-width="0.25" opacity="0.7"/>
    <line x1="248" y1="213.6" x2="353" y2="213.6" stroke="#2A1507" stroke-width="0.25" opacity="0.7"/>

    <line x1="92" y1="410" x2="197" y2="410" stroke="#7C5520" stroke-width="0.5"/>
    <line x1="246" y1="410" x2="351" y2="410" stroke="#7C5520" stroke-width="0.5"/>
    <line x1="94" y1="410.6" x2="199" y2="410.6" stroke="#2A1507" stroke-width="0.25" opacity="0.7"/>
    <line x1="248" y1="410.6" x2="353" y2="410.6" stroke="#2A1507" stroke-width="0.25" opacity="0.7"/>

    <rect x="218.5" y="209.5" width="6" height="6" transform="rotate(45 218.5 209.5)" fill="url(#goldSoft)"/>
    <rect x="218.5" y="406.5" width="6" height="6" transform="rotate(45 218.5 406.5)" fill="url(#goldSoft)"/>
  </g>

  <!-- Text -->
  <g fill="url(#gold)" text-anchor="middle" filter="url(#softGlow)">
    <text x="221.5" y="251" font-family="Georgia, 'Times New Roman', serif" font-size="18" letter-spacing="7.2">ONLINE</text>
    <text x="221.5" y="333" font-family="Georgia, 'Times New Roman', serif" font-size="88" letter-spacing="3.2">BURA</text>
    <text x="221.5" y="378" font-family="Georgia, 'Times New Roman', serif" font-style="italic" font-size="18">est. play</text>
  </g>
</svg>
